<svg width="74" height="38" viewBox="0 0 74 38" fill="none" xmlns="http://www.w3.org/2000/svg"><path d="M0 5.57A5 5 0 015.537.599l30.926 3.343a5 5 0 001.074 0L68.463.599A5 5 0 0174 5.569v22.942a5 5 0 01-4.463 4.971l-32 3.46a5.002 5.002 0 01-1.074 0l-32-3.46A5 5 0 010 28.512V5.57z" fill="#F2F6F8"/><path fill="#fff" d="M36 3h2v35h-2z"/><path d="M34.25 12a2 2 0 012-2h1.5a2 2 0 012 2v18a2 2 0 01-2 2h-1.5a2 2 0 01-2-2V12z" fill="#C8D2D6"/><path d="M28 23.75a2 2 0 01-2-2v-1.5a2 2 0 012-2h18a2 2 0 012 2v1.5a2 2 0 01-2 2H28z" fill="#C8D2D6"/><path opacity=".34" d="M6.5 5.5l24 3m36.5-3l-24 3M67 11l-24 3m24 2.5l-24 3m-18.5-6.25l-12-1.5" stroke="#C8D2D6" stroke-width="2" stroke-linecap="round"/></svg>