<svg width="24" height="27" viewBox="0 0 24 27" fill="none" xmlns="http://www.w3.org/2000/svg"><path d="M17.657 17.04c-1.555 1.524-3.66 2.47-5.916 2.47-2.287 0-4.361-.915-5.916-2.47A9.025 9.025 0 000 25.487v.537c0 .55.427.976.976.976h21.53a.963.963 0 00.976-.976v-.537c0-3.843-2.44-7.136-5.825-8.447z" fill="#fff"/><path d="M4.849 10.178c0 4.117 3.08 7.441 6.892 7.441 3.812 0 6.892-3.354 6.892-7.44 0-.397 0-.794-.03-1.19C19.7 5.756 19.15-.16 17.046.755c-1.83.793-11.893-1.769-11.283 2.47-2.379.092-1.129 4.727-.854 5.733-.061.427-.061.824-.061 1.22zm6.892 5.764c-2.806 0-5.093-2.47-5.184-5.58l.396.03c.244.03.457-.183.427-.458-.122-1.098-.336-3.903.64-3.629 1.22.305 2.531.671 3.72.671 1.19 0 2.501-.366 3.721-.67.946-.245.763 2.53.64 3.628-.03.244.184.458.428.458l.396-.03c-.091 3.11-2.379 5.58-5.184 5.58z" fill="#fff"/></svg>