<svg width="22" height="27" viewBox="0 0 22 27" fill="none" xmlns="http://www.w3.org/2000/svg"><path fill-rule="evenodd" clip-rule="evenodd" d="M.594 22.874c-.328 0-.594-.098-.594-.695 0-1.407.061-1.997.958-3.164 2.268-2.951 2.764-4.483 2.764-8.716 0-3.605 2.673-6.161 5.493-6.786a1.732 1.732 0 112.643 0c2.819.625 5.493 3.18 5.493 6.787 0 4.232.496 5.764 2.764 8.715.896 1.167.957 1.757.957 3.164 0 .597-.266.695-.594.695H.594zM11.387 4.913a.5.5 0 00-.371.928c.109.044.23.09.361.138.513.193 1.175.44 1.81.843.785.496 1.45 1.182 1.651 2.19.14.695.175 1.324.184 1.954.003.2.003.406.003.615 0 .434 0 .885.025 1.34.078 1.402.394 2.951 1.613 5.085a.5.5 0 00.868-.496c-1.139-1.994-1.413-3.392-1.482-4.644-.024-.429-.024-.83-.024-1.247 0-.216 0-.437-.003-.667-.01-.66-.047-1.357-.203-2.136-.275-1.375-1.183-2.261-2.097-2.84-.734-.464-1.524-.759-2.034-.949a12.493 12.493 0 01-.3-.114z" fill="#fff"/><path d="M13.033 24.104H8.039a2.497 2.497 0 004.994 0z" fill="#fff"/></svg>