<svg width="24" height="24" viewBox="0 0 24 24" fill="none" xmlns="http://www.w3.org/2000/svg"><path fill-rule="evenodd" clip-rule="evenodd" d="M9.818 0a1.09 1.09 0 00-1.09 1.09v1.295c-.417.142-.822.31-1.212.502L6.49 1.862a1.09 1.09 0 00-1.543 0L1.862 4.948a1.09 1.09 0 000 1.543l1.025 1.025c-.192.39-.36.795-.502 1.211H1.091A1.09 1.09 0 000 9.818v4.364c0 .602.488 1.09 1.09 1.09h1.295c.124.365.268.72.431 1.064l-.954.954a1.09 1.09 0 000 1.543l3.086 3.086a1.091 1.091 0 001.543 0l.879-.88c.435.223.888.416 1.357.576v1.294c0 .603.489 1.091 1.091 1.091h4.364a1.09 1.09 0 001.09-1.09v-1.295c.417-.142.822-.31 1.212-.502l.806.806a1.091 1.091 0 001.543 0l3.085-3.086a1.091 1.091 0 000-1.543l-.805-.806c.192-.39.36-.795.502-1.211h1.294A1.09 1.09 0 0024 14.182V9.818a1.09 1.09 0 00-1.09-1.09h-1.295c-.16-.47-.352-.923-.576-1.358l.88-.88a1.09 1.09 0 000-1.542l-3.086-3.086a1.09 1.09 0 00-1.543 0l-.954.954a10.08 10.08 0 00-1.063-.43V1.09A1.09 1.09 0 0014.182 0H9.818zM12 19.385a7.385 7.385 0 100-14.77 7.385 7.385 0 000 14.77z" fill="#fff"/><path d="M17.538 12a5.539 5.539 0 11-11.077 0 5.539 5.539 0 0111.077 0z" fill="#fff"/></svg>