<svg width="74" height="38" viewBox="0 0 74 38" fill="none" xmlns="http://www.w3.org/2000/svg">
<path d="M0 5.56967C0 2.59555 2.58051 0.278974 5.53741 0.598639L36.4626 3.9419C36.8198 3.98052 37.1802 3.98052 37.5374 3.9419L68.4626 0.598639C71.4195 0.278975 74 2.59555 74 5.56967V28.5114C74 31.0648 72.076 33.208 69.5374 33.4824L37.5374 36.9419C37.1802 36.9805 36.8198 36.9805 36.4626 36.9419L4.46259 33.4824C1.92397 33.208 0 31.0648 0 28.5114L0 5.56967Z" fill="#F2F6F8"/>
<rect x="36" y="3" width="2" height="35" fill="white"/>
<path d="M34.25 12C34.25 10.8954 35.1454 10 36.25 10H37.75C38.8546 10 39.75 10.8954 39.75 12V30C39.75 31.1046 38.8546 32 37.75 32H36.25C35.1454 32 34.25 31.1046 34.25 30V12Z" fill="#C8D2D6"/>
<path d="M28 23.75C26.8954 23.75 26 22.8546 26 21.75L26 20.25C26 19.1454 26.8954 18.25 28 18.25L46 18.25C47.1046 18.25 48 19.1454 48 20.25V21.75C48 22.8546 47.1046 23.75 46 23.75L28 23.75Z" fill="#C8D2D6"/>
<path opacity="0.34" d="M6.5 5.5L30.5 8.5M67 5.5L43 8.5M67 11L43 14M67 16.5L43 19.5M24.5 13.25L12.5 11.75" stroke="#C8D2D6" stroke-width="2" stroke-linecap="round"/>
</svg>
