<svg width="49" height="30" viewBox="0 0 49 30" fill="none" xmlns="http://www.w3.org/2000/svg">
<path d="M45.129 8.3652L46.5156 6.97854C47.6872 5.80697 47.6872 3.90747 46.5156 2.7359L45.9011 2.12134C44.7295 0.949767 42.83 0.949765 41.6584 2.12134L38.3454 5.43434C37.1739 6.60592 37.1739 8.50541 38.3454 9.67698L39.7321 11.0636" stroke="#026AB5"/>
<path d="M35.1449 8.63431L33.7583 10.021C32.5867 11.1925 32.5867 13.092 33.7583 14.2636L34.3728 14.8782C35.5444 16.0497 37.4439 16.0497 38.6155 14.8782L41.9285 11.5652C43.1001 10.3936 43.1001 8.4941 41.9285 7.32253L40.5418 5.93587" stroke="#026AB5"/>
<path d="M45.5 16V24.5C45.5 27.2614 43.2614 29.5 40.5 29.5H6C3.23858 29.5 1 27.2614 1 24.5V9.5C1 6.73858 3.23858 4.5 6 4.5H33" stroke="#026AB5"/>
</svg>
