<svg width="13" height="13" viewBox="0 0 13 13" fill="none" xmlns="http://www.w3.org/2000/svg">
<path d="M12.881 2.96257L10.0374 0.119003C9.8787 -0.0396677 9.6217 -0.0396677 9.46297 0.119003L0.119814 9.46219C0.043646 9.53836 0.000797987 9.64151 0.000797987 9.7494L0 12.5938C0 12.7013 0.042848 12.8048 0.119016 12.881C0.195184 12.9572 0.298712 13 0.406231 13L3.25059 12.9992C3.35849 12.9992 3.46164 12.9564 3.53781 12.8802L12.881 3.537C13.0397 3.37833 13.0397 3.12127 12.881 2.96257ZM3.08176 12.1875L0.811662 12.1883L0.812462 9.91816L7.5156 3.21503L9.7849 5.48432L3.08176 12.1875ZM10.3593 4.90987L8.09005 2.6406L9.75 0.980674L12.0193 3.24997L10.3593 4.90987Z" fill="#026AB5"/>
</svg>
