<svg width="22" height="13" viewBox="0 0 22 13" fill="none" xmlns="http://www.w3.org/2000/svg">
<path fill-rule="evenodd" clip-rule="evenodd" d="M11 12.5C15.3355 12.5 19.0851 9.44429 20.8771 7.69423C21.5598 7.0275 21.5598 5.9725 20.8771 5.30577C19.0851 3.55571 15.3355 0.5 11 0.5C6.6645 0.5 2.91484 3.55571 1.12287 5.30577C0.440163 5.9725 0.440163 7.0275 1.12287 7.69423C2.91485 9.44429 6.66451 12.5 11 12.5Z" fill="#C8D2D6"/>
<path d="M14 6.5C14 8.15685 12.6568 9.5 11 9.5C9.34312 9.5 7.99997 8.15685 7.99997 6.5C7.99997 4.84315 9.34312 3.5 11 3.5C12.6568 3.5 14 4.84315 14 6.5Z" fill="#C8D2D6"/>
</svg>
