<svg width="24" height="27" viewBox="0 0 24 27" fill="none" xmlns="http://www.w3.org/2000/svg">
<path d="M17.6569 17.0396C16.1017 18.5643 13.9975 19.5097 11.7408 19.5097C9.45362 19.5097 7.37993 18.5948 5.82465 17.0396C2.40915 18.3204 0 21.6444 0 25.4868V26.0243C0 26.5733 0.426938 27.0002 0.975858 27.0002H22.5057C23.0546 27.0002 23.4816 26.5733 23.4816 26.0243V25.4868C23.4816 21.6444 21.0419 18.3509 17.6569 17.0396Z" fill="white"/>
<path d="M4.84875 10.1783C4.84875 14.2952 7.9288 17.6192 11.7407 17.6192C15.5527 17.6192 18.6327 14.2647 18.6327 10.1783C18.6327 9.78182 18.6327 9.38537 18.6022 8.98893C19.7001 5.7564 19.1512 -0.159738 17.047 0.755129C15.2172 1.54801 5.1537 -1.01361 5.76362 3.22527C3.38496 3.31676 4.63528 7.95208 4.90974 8.95844C4.84875 9.38537 4.84875 9.78182 4.84875 10.1783ZM11.7407 15.9419C8.93515 15.9419 6.64799 13.4718 6.5565 10.3612L6.95294 10.3917C7.19691 10.4222 7.41038 10.2088 7.37988 9.93429C7.2579 8.83645 7.04443 6.03086 8.02029 6.30532C9.24011 6.61028 10.5514 6.97622 11.7407 6.97622C12.9301 6.97622 14.2414 6.61028 15.4612 6.30532C16.4066 6.06136 16.2236 8.83645 16.1016 9.93429C16.0711 10.1783 16.2846 10.3917 16.5285 10.3917L16.925 10.3612C16.8335 13.4718 14.5463 15.9419 11.7407 15.9419Z" fill="white"/>
</svg>
