<svg width="22" height="27" viewBox="0 0 22 27" fill="none" xmlns="http://www.w3.org/2000/svg">
<path fill-rule="evenodd" clip-rule="evenodd" d="M0.594369 22.8739C0.266309 22.8739 0 22.7762 0 22.1793C0 20.7724 0.0612684 20.182 0.957886 19.0151C3.2255 16.064 3.72166 14.532 3.72166 10.2995C3.72166 6.69362 6.39532 4.13792 9.2149 3.51307C9.00111 3.26098 8.86391 2.95298 8.81948 2.62543C8.77505 2.29789 8.82526 1.96447 8.96417 1.66453C9.10308 1.36459 9.3249 1.11065 9.60345 0.932685C9.882 0.75472 10.2056 0.660156 10.5362 0.660156C10.8667 0.660156 11.1904 0.75472 11.4689 0.932685C11.7475 1.11065 11.9693 1.36459 12.1082 1.66453C12.2471 1.96447 12.2973 2.29789 12.2529 2.62543C12.2085 2.95298 12.0713 3.26098 11.8575 3.51307C14.677 4.13791 17.3507 6.69362 17.3507 10.2995C17.3507 14.532 17.8469 16.064 20.1145 19.0151C21.0111 20.182 21.0724 20.7724 21.0724 22.1793C21.0724 22.7762 20.8061 22.8739 20.478 22.8739H0.594369ZM11.3874 4.91271C11.131 4.81016 10.84 4.93487 10.7374 5.19126C10.6349 5.44765 10.7596 5.73863 11.016 5.84119C11.1246 5.88465 11.2459 5.93013 11.377 5.97926C11.8899 6.17152 12.552 6.4197 13.1875 6.82172C13.972 7.31797 14.6366 8.00395 14.8383 9.01236C14.9772 9.70715 15.0131 10.3365 15.0221 10.9665C15.0249 11.1665 15.025 11.3719 15.025 11.5811C15.0251 12.0152 15.0251 12.466 15.0504 12.9216C15.1283 14.3225 15.444 15.8723 16.6631 18.0058C16.8001 18.2455 17.1056 18.3288 17.3453 18.1918C17.5851 18.0548 17.6684 17.7494 17.5314 17.5096C16.3923 15.5162 16.1184 14.1181 16.0489 12.8661C16.025 12.4371 16.0251 12.0356 16.0252 11.6188V11.6187C16.0252 11.4027 16.0253 11.1825 16.022 10.9522C16.0125 10.2925 15.9747 9.59535 15.8189 8.81625C15.5438 7.44105 14.6362 6.55487 13.7221 5.97661C12.9881 5.51226 12.1978 5.21738 11.6876 5.02699C11.5718 4.98376 11.4704 4.94593 11.3874 4.91271Z" fill="white"/>
<path d="M13.0329 24.1035H8.03906C8.03906 24.7657 8.30213 25.4008 8.77039 25.8691C9.23865 26.3374 9.87375 26.6004 10.536 26.6004C11.1982 26.6004 11.8333 26.3374 12.3016 25.8691C12.7698 25.4008 13.0329 24.7657 13.0329 24.1035Z" fill="white"/>
</svg>
