<svg width="15" height="19" viewBox="0 0 15 19" fill="none" xmlns="http://www.w3.org/2000/svg">
<path d="M3.06066 0.646447C3.15443 0.552678 3.28161 0.5 3.41421 0.5H12C12.2761 0.5 12.5 0.723858 12.5 1V16C12.5 16.2761 12.2761 16.5 12 16.5H1C0.723858 16.5 0.5 16.2761 0.5 16V3.41421C0.5 3.28161 0.552678 3.15443 0.646447 3.06066L0.292893 2.70711L0.646447 3.06066L3.06066 0.646447Z" stroke="white"/>
<path d="M14.5 2V17.5C14.5 18.0523 14.0523 18.5 13.5 18.5H1" stroke="white"/>
<rect x="3" y="4" width="7" height="1" fill="white"/>
<rect x="3" y="6" width="7" height="1" fill="white"/>
<rect x="3" y="8" width="7" height="1" fill="white"/>
<rect x="3" y="10" width="7" height="1" fill="white"/>
</svg>
