<svg width="24" height="24" viewBox="0 0 24 24" fill="none" xmlns="http://www.w3.org/2000/svg">
<path fill-rule="evenodd" clip-rule="evenodd" d="M9.81818 0C9.21569 0 8.72727 0.488417 8.72727 1.09091V2.38512C8.3106 2.5269 7.9061 2.69501 7.51576 2.88746L6.49063 1.86234C6.06461 1.43631 5.37388 1.43631 4.94785 1.86234L1.8623 4.94789C1.43627 5.37392 1.43627 6.06465 1.8623 6.49067L2.88744 7.51581C2.695 7.90614 2.5269 8.31062 2.38512 8.72727H1.09091C0.488417 8.72727 0 9.21569 0 9.81818V14.1818C0 14.7843 0.488417 15.2727 1.09091 15.2727H2.38512C2.50909 15.637 2.65318 15.9921 2.81608 16.3364L1.86234 17.2902C1.43631 17.7162 1.43631 18.4069 1.86234 18.833L4.94789 21.9185C5.37392 22.3445 6.06465 22.3445 6.49067 21.9185L7.36998 21.0392C7.80512 21.2625 8.25849 21.4554 8.72727 21.6149V22.9091C8.72727 23.5116 9.21569 24 9.81818 24H14.1818C14.7843 24 15.2727 23.5116 15.2727 22.9091V21.6149C15.6894 21.4731 16.0939 21.305 16.4842 21.1126L17.2901 21.9185C17.7161 22.3445 18.4068 22.3445 18.8329 21.9185L21.9184 18.8329C22.3444 18.4069 22.3444 17.7161 21.9184 17.2901L21.1125 16.4842C21.305 16.0939 21.4731 15.6894 21.6149 15.2727H22.9091C23.5116 15.2727 24 14.7843 24 14.1818V9.81818C24 9.21569 23.5116 8.72727 22.9091 8.72727H21.6149C21.4554 8.25849 21.2625 7.80512 21.0392 7.36998L21.9185 6.49072C22.3445 6.0647 22.3445 5.37397 21.9185 4.94795L18.8329 1.86239C18.4069 1.43636 17.7161 1.43636 17.2901 1.86239L16.3364 2.81608C15.9921 2.65318 15.637 2.50909 15.2727 2.38512V1.09091C15.2727 0.488417 14.7843 0 14.1818 0H9.81818ZM12 19.3846C16.0784 19.3846 19.3846 16.0784 19.3846 12C19.3846 7.92159 16.0784 4.61539 12 4.61539C7.92159 4.61539 4.61539 7.92159 4.61539 12C4.61539 16.0784 7.92159 19.3846 12 19.3846Z" fill="white"/>
<path d="M17.5385 12C17.5385 15.0588 15.0588 17.5385 12 17.5385C8.94119 17.5385 6.46154 15.0588 6.46154 12C6.46154 8.94119 8.94119 6.46154 12 6.46154C15.0588 6.46154 17.5385 8.94119 17.5385 12Z" fill="white"/>
</svg>
